<svg width="1400" height="798" viewBox="0 0 1400 798" fill="none" xmlns="http://www.w3.org/2000/svg">
<g clip-path="url(#clip0_24_7)">
<path fill-rule="evenodd" clip-rule="evenodd" d="M1400 -32C1400 -32 1400 603.265 1400 698.851C1365.19 708.312 1323.67 685.981 1287.5 695.323C1251.65 704.58 1220.18 747.173 1182.85 754.646C1146.62 761.897 1105.81 733.834 1068.32 739.322C1031.81 744.667 997.5 783.782 959.925 787.378C923.214 790.892 884.396 758.819 846.784 760.593C809.946 762.329 773.236 798 735.646 798C698.058 798 661.356 762.329 624.517 760.593C586.911 758.819 548.093 790.893 511.385 787.38C473.811 783.784 439.494 744.668 402.987 739.325C365.502 733.837 324.689 761.899 288.463 754.649C251.129 747.176 219.653 704.584 183.805 695.326C146.7 685.745 103.971 709.095 68.6223 697.699C32.1141 685.93 4.34011 640.356 -30 626.277C-30 592.461 -30 -32 -30 -32H1400Z" fill="#F5F2EB"/>
</g>
<defs>
<clipPath id="clip0_24_7">
<rect width="1430" height="830" fill="white" transform="translate(-30 -32)"/>
</clipPath>
</defs>
</svg>
