<svg width="1068" height="786" viewBox="0 0 1068 786" fill="none" xmlns="http://www.w3.org/2000/svg">
<g clip-path="url(#clip0_3_117)">
<mask id="mask0_3_117" style="mask-type:luminance" maskUnits="userSpaceOnUse" x="-362" y="-82" width="1430" height="868">
<path d="M1068 -82H-362V785.25H1068V-82Z" fill="white"/>
</mask>
<g mask="url(#mask0_3_117)">
<path d="M1068 785.25C1068 785.25 1068 98.9655 1068 10.1384C1033.19 1.34624 991.674 22.0985 955.499 13.4165C919.652 4.81429 888.177 -34.7667 850.849 -41.7104C814.622 -48.4499 773.807 -22.3706 736.322 -27.4715C699.812 -32.4376 665.5 -68.787 627.925 -72.1287C591.214 -75.3945 552.396 -45.5897 514.784 -47.2378C477.946 -48.8517 441.236 -82 403.646 -82C366.058 -82 329.356 -48.8517 292.517 -47.2378C254.911 -45.5897 216.093 -75.3954 179.385 -72.1306C141.811 -68.7889 107.494 -32.4395 70.9869 -27.4725C33.5015 -22.3735 -7.31082 -48.4518 -43.5367 -41.7142C-80.8709 -34.7695 -112.347 4.81144 -148.195 13.4137C-185.3 22.3179 -228.029 0.618622 -263.378 11.209C-299.885 22.146 -327.659 64.4969 -362 77.5806C-362 109.006 -362 785.25 -362 785.25H1068Z" fill="#F9F6F2"/>
</g>
</g>
<defs>
<clipPath id="clip0_3_117">
<rect width="1430" height="867.25" fill="white" transform="translate(-362 -82)"/>
</clipPath>
</defs>
</svg>
