<svg width="20" height="12" viewBox="0 0 20 12" fill="none" xmlns="http://www.w3.org/2000/svg" xmlns:xlink="http://www.w3.org/1999/xlink">
<path d="M3.131,-0.17C2.507,-0.795 1.493,-0.795 0.869,-0.17C0.244,0.454 0.244,1.467 0.869,2.092L3.131,-0.17ZM10,8.961L8.869,10.092C9.493,10.717 10.507,10.717 11.131,10.092L10,8.961ZM19.131,2.092C19.756,1.467 19.756,0.454 19.131,-0.17C18.507,-0.795 17.493,-0.795 16.869,-0.17L19.131,2.092ZM0.869,2.092L8.869,10.092L11.131,7.83L3.131,-0.17L0.869,2.092ZM11.131,10.092L19.131,2.092L16.869,-0.17L8.869,7.83L11.131,10.092Z" fill="#1E1E1E"/>
</svg>
