<svg width="20" height="12" viewBox="0 0 20 12" fill="none" xmlns="http://www.w3.org/2000/svg" xmlns:xlink="http://www.w3.org/1999/xlink">
<path d="M3.131,-0.528C2.507,-1.153 1.493,-1.153 0.869,-0.528C0.244,0.096 0.244,1.11 0.869,1.734L3.131,-0.528ZM10,8.603L8.869,9.734C9.493,10.359 10.507,10.359 11.131,9.734L10,8.603ZM19.131,1.734C19.756,1.11 19.756,0.096 19.131,-0.528C18.507,-1.153 17.493,-1.153 16.869,-0.528L19.131,1.734ZM0.869,1.734L8.869,9.734L11.131,7.472L3.131,-0.528L0.869,1.734ZM11.131,9.734L19.131,1.734L16.869,-0.528L8.869,7.472L11.131,9.734Z" fill="#1E1E1E"/>
</svg>
