<svg width="194" height="86" viewBox="0 0 194 86" fill="none" xmlns="http://www.w3.org/2000/svg" xmlns:xlink="http://www.w3.org/1999/xlink">
<path d="M91.76,42.804C91.76,66.66 71.231,86 45.907,86C20.583,86 0.053,66.66 0.053,42.804C0.053,18.947 20.583,-0.393 45.907,-0.393C71.231,-0.393 91.76,18.947 91.76,42.804Z" fill="url(#pattern_0_501_145)"/>
<path d="M142.44,42.804C142.44,66.66 121.911,86 96.587,86C71.263,86 50.733,66.66 50.733,42.804C50.733,18.947 71.263,-0.393 96.587,-0.393C121.911,-0.393 142.44,18.947 142.44,42.804Z" fill="url(#pattern_0_501_146)"/>
<path d="M193.12,42.804C193.12,66.66 172.591,86 147.267,86C121.943,86 101.413,66.66 101.413,42.804C101.413,18.947 121.943,-0.393 147.267,-0.393C172.591,-0.393 193.12,18.947 193.12,42.804Z" fill="url(#pattern_0_501_147)"/>
</svg>
